<svg width="29" height="28" viewBox="0 0 29 28" fill="none" xmlns="http://www.w3.org/2000/svg">
<path d="M8.91453 17.5531C8.0349 16.2386 7.66921 14.8154 7.82734 13.3032C7.98548 11.791 8.62791 10.4864 9.75463 9.37942C10.8813 8.28235 12.186 7.65969 13.6586 7.53121C15.1313 7.40272 16.5248 7.76841 17.8295 8.64804L8.91453 17.5531Z" fill="#F46A4A"/>
<path d="M28.2173 14.0049L14.2123 28L7.74853 21.5362L8.74676 20.5281C10.338 21.8821 12.2356 22.5443 14.4397 22.5147C16.8512 22.4751 18.8378 21.6548 20.3994 20.0339C21.6546 18.7589 22.4255 17.2369 22.7221 15.4677C23.0186 13.6986 22.7616 11.9788 21.9511 10.2887L20.3006 11.9393C21.1802 14.4003 20.7256 16.5648 18.9169 18.4229C17.7506 19.6188 16.3472 20.2711 14.7164 20.3798C13.0856 20.4885 11.6229 20.024 10.338 18.9764L20.775 8.53936L19.9349 7.69926C18.4919 6.25627 16.6437 5.50512 14.3705 5.43593C12.0479 5.3964 10.0613 6.09813 8.42061 7.56089C6.60204 9.19167 5.68287 11.2672 5.66311 13.7974C5.65322 15.8235 6.22646 17.5927 7.37295 19.0851L6.33518 20.1228L0.217285 14.0049L14.2123 0L28.2173 14.0049Z" fill="#F46A4A"/>
</svg>
