<svg width="102" height="23" viewBox="0 0 102 23" fill="none" xmlns="http://www.w3.org/2000/svg">
<path d="M21.2598 14.737C20.4831 16.9854 19.1545 18.8045 17.274 20.1127C15.3936 21.4413 13.3292 22.0953 11.0399 22.1362C8.15789 22.1771 5.62336 21.1347 3.39542 19.0089C1.18793 16.8423 0.0432997 14.2873 0.00242013 11.3031C-0.0588992 8.1554 1.04485 5.43691 3.3341 3.18853C5.66424 0.899275 8.34185 -0.163594 11.4896 0.0203642C14.2898 0.204322 16.7222 1.34895 18.7866 3.49513C20.7692 5.60042 21.7708 7.951 21.7708 10.5877V12.1003H2.88443C3.10927 14.2056 3.98818 15.9634 5.58248 17.3329C7.17678 18.7023 9.01636 19.3973 11.1625 19.3564C14.4738 19.3155 16.8448 17.7621 18.2756 14.737H21.2598ZM19.0114 9.48398C18.6026 7.52176 17.6828 5.9479 16.252 4.72151C14.8213 3.49513 13.0839 2.88193 11.0603 2.84105C9.0368 2.80017 7.25854 3.43381 5.746 4.63976C4.23345 5.86614 3.31366 7.48088 2.90487 9.46354H19.0114V9.48398Z" fill="#F46A4A"/>
<path d="M42.1697 21.6252H38.6745L33.1353 13.2245L27.637 21.6252H24.3258L31.4184 10.8943L24.2645 0.592682H27.4735L33.1558 8.60508L38.6541 0.592682H42.1288L34.791 10.9557L42.1697 21.6252Z" fill="#F46A4A"/>
<path d="M63.611 12.5908C63.611 15.3298 62.7321 17.5986 60.9538 19.4177C59.2165 21.2164 57.009 22.1567 54.3109 22.1567C51.6129 22.1567 49.4054 21.2369 47.6271 19.4177C45.8897 17.619 45.0108 15.3298 45.0108 12.5908V0.592682H47.8519V12.9179C47.8519 14.6961 48.4856 16.2087 49.7733 17.4964C51.061 18.7432 52.5735 19.3768 54.3109 19.3768C56.0483 19.3768 57.5199 18.7432 58.8077 17.4964C60.0954 16.2087 60.7699 14.6961 60.7699 12.9179V0.592682H63.611V12.5908V12.5908Z" fill="#F46A4A"/>
<path d="M85.3385 12.5908C85.3385 15.3298 84.4596 17.5986 82.6813 19.4177C80.9439 21.2164 78.7364 22.1567 76.0384 22.1567C73.3403 22.1567 71.1328 21.2369 69.3546 19.4177C67.6172 17.619 66.7383 15.3298 66.7383 12.5908V0.592682H69.5794V12.9179C69.5794 14.6961 70.213 16.2087 71.5008 17.4964C72.7885 18.7432 74.301 19.3768 76.0384 19.3768C77.7758 19.3768 79.2474 18.7432 80.5351 17.4964C81.8228 16.2087 82.4974 14.6961 82.4974 12.9179V0.592682H85.3385V12.5908V12.5908Z" fill="#F46A4A"/>
<path d="M91.3887 16.086C91.3887 16.781 91.7975 17.5168 92.5742 18.2935C93.3509 19.0702 94.1889 19.4382 95.0883 19.3973C96.2738 19.3564 97.1936 19.0294 97.8885 18.3344C98.5221 17.7008 98.8083 16.8628 98.8492 15.8203C98.8901 14.0216 97.8476 12.7952 95.7832 12.1412L93.31 11.3645C90.7346 10.5469 89.3651 8.78904 89.2425 6.09099C89.1607 4.47624 89.7126 3.0659 90.8572 1.92127C92.0427 0.776644 93.4326 0.143008 95.1087 0.0816888C96.5395 -7.02715e-05 97.8681 0.490486 99.0944 1.49204C100.341 2.49358 101.016 3.69953 101.118 5.1712L101.159 5.80483H98.2155V5.33471C98.2155 3.86305 96.7439 2.8615 95.1087 2.8615C93.5144 2.90238 92.1858 4.10833 92.1654 5.74351C92.0632 7.25605 92.983 8.31892 94.8634 8.95256L97.2957 9.77015C100.096 10.7308 101.609 12.6113 101.792 15.3706C101.936 17.2511 101.282 18.9067 99.8098 20.3171C98.3382 21.6865 96.6417 22.2997 94.7203 22.1975C92.9421 22.0953 91.4704 21.3391 90.2645 20.0514C89.079 18.7637 88.4862 17.2102 88.4862 15.4115H91.4091V16.086H91.3887Z" fill="#F46A4A"/>
</svg>
