<svg width="512" height="376" viewBox="0 0 512 376" fill="none" xmlns="http://www.w3.org/2000/svg">
<path opacity="0.11" d="M98.5867 375.702C101.855 375.702 104.505 375.539 104.505 375.337C104.505 375.136 101.855 374.973 98.5867 374.973C95.3179 374.973 92.668 375.136 92.668 375.337C92.668 375.539 95.3179 375.702 98.5867 375.702Z" fill="black"/>
<path d="M245.553 0H41.1294V117.464H245.553V0Z" fill="#FFE6BD"/>
<path opacity="0.5" d="M222.879 104.443H63.8938V129.483H222.879V104.443Z" fill="#FFD082"/>
<path d="M508.955 0H263.675V270.829H508.955V0Z" fill="#FFE6BD"/>
<path d="M382.227 324.995H508.172C508.172 324.995 513.734 277.344 495.195 277.435C476.655 277.525 482.835 299.949 470.475 299.859C458.116 299.678 465.779 259.984 446.127 260.617C426.598 261.25 437.104 292.806 417.946 299.859C398.789 306.821 382.969 297.598 382.227 324.995Z" fill="#74A670"/>
<path d="M270.411 324.983C270.411 324.983 275.146 250.953 256.115 250.134C237.176 249.314 225.065 273.991 212.681 262.335C200.297 250.68 220.421 205.607 198.294 199.506C176.167 193.314 185.364 126.023 153.858 124.384C122.353 122.745 122.17 224.365 106.326 224.82C90.4825 225.275 110.515 182.843 83.198 182.387C55.8808 181.932 49.9621 258.329 41.3117 257.054C32.6613 255.779 37.6694 226.186 13.5393 229.1C-10.5908 232.104 4.88888 324.983 4.88888 324.983H270.411Z" fill="#74A670"/>
<path d="M153.039 335.636H141.93L158.138 275.448H169.338L153.039 335.636Z" fill="#94795D"/>
<path d="M308.929 335.636H320.038L303.829 275.448H292.629L308.929 335.636Z" fill="#94795D"/>
<path d="M316.942 269.074H145.026V279.09H316.942V269.074Z" fill="#7A644D"/>
<path d="M316.942 18.1202H145.026V24.7674H316.942V18.1202Z" fill="#94795D"/>
<path opacity="0.2" d="M312.844 18.1202H149.123V24.7674H312.844V18.1202Z" fill="black"/>
<path d="M307.563 21.4894H154.405V269.074H307.563V21.4894Z" fill="white"/>
<path d="M307.563 21.4894H154.405V32.2341H307.563V21.4894Z" fill="#D9D9D9"/>
<path d="M307.563 266.251H154.405V269.074H307.563V266.251Z" fill="#D9D9D9"/>
<path d="M310.568 14.9332H151.4V27.9544H310.568V14.9332Z" fill="white"/>
<path d="M286.437 146.055H175.53V166.361H286.437V146.055Z" stroke="#C1C1E8" stroke-miterlimit="10"/>
<path d="M184.089 151.337H277.878" stroke="#C1C1E8" stroke-miterlimit="10"/>
<path d="M184.089 156.163H277.878" stroke="#C1C1E8" stroke-miterlimit="10"/>
<path d="M184.089 161.08H277.878" stroke="#C1C1E8" stroke-miterlimit="10"/>
<path d="M277.878 44.8H184.089V92.4228H277.878V44.8Z" stroke="#C1C1E8" stroke-miterlimit="10"/>
<path d="M237.084 57.2748H270.138" stroke="#C1C1E8" stroke-miterlimit="10"/>
<path d="M237.084 62.1008H270.138" stroke="#C1C1E8" stroke-miterlimit="10"/>
<path d="M237.084 67.0179H270.138" stroke="#C1C1E8" stroke-miterlimit="10"/>
<path d="M237.084 71.8439H270.138" stroke="#C1C1E8" stroke-miterlimit="10"/>
<path d="M237.084 76.67H270.138" stroke="#C1C1E8" stroke-miterlimit="10"/>
<path d="M237.084 81.587H270.138" stroke="#C1C1E8" stroke-miterlimit="10"/>
<path d="M184.089 136.13V133.49C184.089 131.122 186.002 129.21 188.369 129.21C190.737 129.21 192.649 131.122 192.649 133.49V136.312" stroke="#E88ED3" stroke-miterlimit="10"/>
<path d="M188.46 127.571C190.22 127.571 191.647 126.144 191.647 124.384C191.647 122.624 190.22 121.197 188.46 121.197C186.7 121.197 185.273 122.624 185.273 124.384C185.273 126.144 186.7 127.571 188.46 127.571Z" stroke="#E88ED3" stroke-miterlimit="10"/>
<path d="M198.75 126.842C198.75 131.031 196.291 134.582 192.74 136.221C191.465 136.859 190.008 137.132 188.46 137.132C182.724 137.132 178.08 132.488 178.08 126.751C178.08 121.015 182.724 116.371 188.46 116.371C194.197 116.553 198.75 121.197 198.75 126.842Z" stroke="#E88ED3" stroke-miterlimit="10"/>
<path d="M212.135 136.312V133.49C212.135 131.122 214.047 129.21 216.415 129.21C218.782 129.21 220.694 131.122 220.694 133.49V136.312" stroke="#E88ED3" stroke-miterlimit="10"/>
<path d="M219.602 127.571H213.319V124.384C213.319 122.654 214.776 121.197 216.506 121.197C218.236 121.197 219.693 122.654 219.693 124.384V127.571H219.602Z" stroke="#E88ED3" stroke-miterlimit="10"/>
<path d="M216.415 137.223C222.148 137.223 226.795 132.575 226.795 126.842C226.795 121.109 222.148 116.462 216.415 116.462C210.682 116.462 206.034 121.109 206.034 126.842C206.034 132.575 210.682 137.223 216.415 137.223Z" stroke="#E88ED3" stroke-miterlimit="10"/>
<path d="M241.273 136.13V133.49C241.273 131.122 243.185 129.21 245.553 129.21C247.92 129.21 249.833 131.122 249.833 133.49V136.312" stroke="#E88ED3" stroke-miterlimit="10"/>
<path d="M245.553 127.571C247.313 127.571 248.74 126.144 248.74 124.384C248.74 122.624 247.313 121.197 245.553 121.197C243.793 121.197 242.366 122.624 242.366 124.384C242.366 126.144 243.793 127.571 245.553 127.571Z" stroke="#E88ED3" stroke-miterlimit="10"/>
<path d="M255.933 126.842C255.933 131.031 253.475 134.582 249.924 136.221C248.649 136.859 247.192 137.132 245.644 137.132C239.907 137.132 235.263 132.488 235.263 126.751C235.263 121.015 239.907 116.371 245.644 116.371C251.289 116.553 255.933 121.197 255.933 126.842Z" stroke="#E88ED3" stroke-miterlimit="10"/>
<path d="M269.228 136.312V133.49C269.228 131.122 271.14 129.21 273.507 129.21C275.875 129.21 277.787 131.122 277.787 133.49V136.312" stroke="#E88ED3" stroke-miterlimit="10"/>
<path d="M276.694 127.571H270.411V124.384C270.411 122.654 271.868 121.197 273.598 121.197C275.328 121.197 276.785 122.654 276.785 124.384V127.571H276.694Z" stroke="#E88ED3" stroke-miterlimit="10"/>
<path d="M273.507 137.223C279.24 137.223 283.888 132.575 283.888 126.842C283.888 121.109 279.24 116.462 273.507 116.462C267.774 116.462 263.127 121.109 263.127 126.842C263.127 132.575 267.774 137.223 273.507 137.223Z" stroke="#E88ED3" stroke-miterlimit="10"/>
<path d="M188.46 113.275V106.719H273.508V113.275" stroke="#D8C1E8" stroke-miterlimit="10"/>
<path d="M216.415 113.275V106.719" stroke="#D8C1E8" stroke-miterlimit="10"/>
<path d="M245.553 113.275V106.719" stroke="#D8C1E8" stroke-miterlimit="10"/>
<path d="M230.984 106.719V96.5204" stroke="#D8C1E8" stroke-miterlimit="10"/>
<path d="M221.058 188.215C220.967 192.768 223.699 196.683 227.615 198.504H233.989C237.904 196.774 240.636 192.859 240.545 188.215H221.058V188.215Z" stroke="#E8CCA7" stroke-miterlimit="10"/>
<path d="M236.902 196.592H240.454C242.548 196.592 244.278 194.862 244.278 192.768C244.278 190.764 242.639 189.034 240.636 188.943" stroke="#E8CCA7" stroke-miterlimit="10"/>
<path d="M235.628 197.503C238.906 197.776 241.182 198.231 241.182 198.869C241.182 199.688 236.538 200.416 230.802 200.416C225.065 200.416 220.421 199.779 220.421 198.869C220.421 198.322 222.697 197.776 225.976 197.503" stroke="#E8CCA7" stroke-miterlimit="10"/>
<path d="M227.523 184.299V187.122" stroke="#E8CCA7" stroke-miterlimit="10"/>
<path d="M229.162 183.116V187.122" stroke="#E8CCA7" stroke-miterlimit="10"/>
<path d="M230.802 181.932V187.122" stroke="#E8CCA7" stroke-miterlimit="10"/>
<path d="M232.531 183.116V187.122" stroke="#E8CCA7" stroke-miterlimit="10"/>
<path d="M234.171 184.299V187.122" stroke="#E8CCA7" stroke-miterlimit="10"/>
<path d="M230.984 208.065C240.287 208.065 247.829 200.523 247.829 191.22C247.829 181.916 240.287 174.374 230.984 174.374C221.68 174.374 214.138 181.916 214.138 191.22C214.138 200.523 221.68 208.065 230.984 208.065Z" stroke="#E8CCA7" stroke-miterlimit="10"/>
<path d="M230.984 168.273V172.189" stroke="#C1C1E8" stroke-miterlimit="10"/>
<path d="M260.122 211.89H201.845V254.686H260.122V211.89Z" stroke="#C1C1E8" stroke-miterlimit="10"/>
<path d="M209.676 222.999H235.263" stroke="#C1C1E8" stroke-miterlimit="10"/>
<path d="M209.676 230.283H235.263" stroke="#C1C1E8" stroke-miterlimit="10"/>
<path d="M209.676 237.568H235.263" stroke="#C1C1E8" stroke-miterlimit="10"/>
<path d="M209.676 244.852H235.263" stroke="#C1C1E8" stroke-miterlimit="10"/>
<path d="M244.187 220.995L246.919 223.636L252.928 219.174" stroke="#A0E8B8" stroke-miterlimit="10"/>
<path d="M244.187 228.917L246.919 231.558L252.928 227.096" stroke="#A0E8B8" stroke-miterlimit="10"/>
<path d="M244.187 236.839L246.919 239.48L252.928 235.018" stroke="#A0E8B8" stroke-miterlimit="10"/>
<path d="M244.187 244.761L246.919 247.402L252.928 242.94" stroke="#A0E8B8" stroke-miterlimit="10"/>
<path d="M257.845 187.122C293.631 187.122 289.715 235.018 264.219 235.018" stroke="#C1C1E8" stroke-miterlimit="10"/>
<path d="M262.489 183.116L257.845 187.122L262.489 191.22" stroke="#C1C1E8" stroke-miterlimit="10"/>
<path d="M316.942 269.074H145.026V275.721H316.942V269.074Z" fill="#94795D"/>
<path d="M166.242 355.76C166.242 355.76 171.159 360.313 180.811 364.593C190.463 368.872 192.102 370.42 191.009 371.786C189.917 373.152 151.491 371.513 149.214 370.511C146.938 369.51 154.86 355.487 154.86 355.487L166.242 355.76Z" fill="#212121"/>
<path d="M184.089 350.388C184.089 350.388 181.357 356.671 181.357 358.856C181.357 361.041 186.275 361.406 194.834 360.95C203.393 360.495 217.234 360.859 217.871 358.856C218.509 356.853 194.561 348.02 194.561 348.02L184.089 350.388Z" fill="#212121"/>
<path d="M119.712 280.092C119.712 280.092 166.697 280.092 173.891 280.092C181.084 280.092 184.909 284.098 186.457 296.118C188.005 308.137 197.657 348.476 197.657 348.476L181.904 352.664L168.701 303.858L116.798 302.219L119.712 280.092Z" fill="#3D573A"/>
<path d="M181.357 317.152L187.731 347.019" stroke="#30452E" stroke-miterlimit="10"/>
<path opacity="0.2" d="M135.009 280.092C126.359 280.092 119.712 280.092 119.712 280.092L116.707 302.31L137.468 302.947L135.009 280.092Z" fill="black"/>
<path d="M115.887 283.097C115.887 283.097 168.791 286.193 180.083 287.74C191.374 289.288 194.105 294.57 190.827 305.497C187.549 316.423 169.884 357.035 169.884 357.035H151.673L167.972 309.321L105.052 307.136L115.887 283.097Z" fill="#4B6B48"/>
<path d="M111.334 288.742C111.334 288.742 126.177 287.376 128.908 295.298" stroke="#3D573A" stroke-miterlimit="10"/>
<path d="M110.788 294.114C110.788 294.114 175.348 297.757 176.714 300.306C178.079 302.856 161.507 350.388 161.507 350.388" stroke="#3D573A" stroke-miterlimit="10"/>
<path d="M160.232 241.666C160.232 241.666 167.79 237.568 168.609 237.568C169.338 237.659 165.605 240.209 165.605 240.209C165.605 240.209 170.977 237.75 172.07 238.296C173.162 238.843 168.427 240.391 168.427 240.391C168.427 240.391 175.712 238.661 176.167 239.207C176.622 239.753 165.969 243.031 165.969 243.031L160.232 241.666Z" fill="#A5755E"/>
<path d="M115.887 223.272C115.887 223.272 129.091 212.892 137.65 208.521C137.65 208.521 145.39 199.779 156.226 191.129C167.061 182.478 180.629 170.186 181.813 171.096C182.996 172.007 174.71 179.383 174.71 179.383C175.257 183.116 176.167 186.94 174.164 189.581C172.161 192.222 166.06 193.041 166.06 193.041L119.894 237.477L115.887 223.272Z" fill="#9C6D56"/>
<path opacity="0.2" d="M119.985 237.568L122.443 235.201C121.988 230.83 120.531 223.454 119.803 220.358C117.435 222.088 115.887 223.363 115.887 223.363L119.985 237.568Z" fill="black"/>
<path d="M169.975 185.757C169.975 185.757 171.25 188.397 171.887 188.67C172.525 188.944 173.253 187.578 172.616 184.664C172.252 182.843 171.25 180.657 170.613 179.2C167.335 181.932 163.692 185.028 160.141 187.942C166.424 192.404 169.975 185.757 169.975 185.757Z" fill="#A5755E"/>
<path d="M99.5881 232.924L117.708 221.269C117.708 221.269 121.078 230.192 121.26 239.025L108.056 249.952L99.5881 232.924Z" fill="#18314F"/>
<path opacity="0.2" d="M111.608 225.184L99.5881 232.924L108.056 249.952L113.338 245.581L111.608 225.184Z" fill="black"/>
<path d="M84.928 229.646C82.6516 234.836 78.1898 240.3 80.2841 258.784C82.3784 277.269 94.8532 299.214 99.315 304.222C103.777 309.23 107.783 310.232 110.788 302.127C113.793 294.023 113.702 284.007 125.175 283.643C125.175 283.643 116.07 267.617 113.975 258.147C111.881 248.677 108.694 236.111 104.414 230.921L93.5784 225.913L84.928 229.646Z" fill="#1D3C61"/>
<path opacity="0.2" d="M113.975 258.147C113.884 257.783 113.793 257.418 113.702 257.054L85.3832 252.319C89.5718 257.601 98.5865 267.435 119.53 272.898C117.344 268.163 114.977 262.518 113.975 258.147Z" fill="black"/>
<path d="M106.691 204.787L109.24 201.145C102.411 200.69 99.4971 190.218 99.4971 190.218L78.4629 197.412C78.4629 197.412 83.1979 215.168 84.3816 217.08C85.019 218.173 85.9296 221.542 86.4759 224.274C86.8401 226.004 86.1117 227.461 84.9279 229.555C94.58 227.096 104.414 230.83 104.414 230.83C104.414 230.83 102.047 228.28 101.318 224.82L100.317 220.085C100.317 220.085 108.33 218.446 109.604 216.17C110.879 213.984 106.691 204.787 106.691 204.787Z" fill="#9C6D56"/>
<path opacity="0.2" d="M88.7523 207.883L84.0173 203.057L81.1946 205.061L80.9214 206.7C82.1962 211.344 83.6531 216.079 84.2905 217.08C84.9279 218.173 85.8385 221.542 86.3848 224.274C86.749 226.004 86.0206 227.461 84.8368 229.555C94.4889 227.096 104.323 230.83 104.323 230.83C104.323 230.83 101.956 228.28 101.227 224.82L100.225 220.085C100.225 220.085 104.96 219.083 107.692 217.627C97.6759 220.085 90.8466 212.254 88.7523 207.883Z" fill="#9C6D56"/>
<path d="M75.6401 193.496C77.1881 193.314 78.0076 189.945 78.0076 189.945C78.0076 189.945 86.0206 180.566 97.6759 181.568C109.331 182.57 101.591 198.869 85.1101 199.597L90.9377 207.337L88.9345 209.249C88.9345 209.249 86.567 204.514 84.4727 205.152C82.3784 205.789 81.5588 212.801 87.9328 213.984L85.5654 220.996C85.5654 220.996 83.0158 216.716 80.5572 215.987C78.0076 215.259 69.084 211.981 68.9019 204.97C68.8108 196.592 75.6401 193.496 75.6401 193.496Z" fill="#212121"/>
<path d="M86.2938 207.337C85.6564 206.973 83.7442 207.792 84.8368 209.978" stroke="#A5755E" stroke-width="0.6" stroke-miterlimit="10"/>
<path d="M109.422 250.953L123.536 257.509C123.536 257.509 136.102 248.95 156.135 244.306C156.135 244.306 156.59 242.03 158.866 239.48C161.143 236.931 163.783 234.199 164.512 234.654C165.24 235.109 161.871 239.116 162.6 240.755C163.328 242.394 178.353 239.298 178.535 240.664C178.717 242.03 164.694 248.677 159.595 248.768C159.595 248.768 130.092 268.892 122.899 269.529C115.705 270.166 100.954 262.244 100.954 262.244L109.422 250.953Z" fill="#9C6D56"/>
<path d="M100.181 201.073C100.712 200.786 100.677 199.693 100.103 198.631C99.5298 197.569 98.6344 196.941 98.1034 197.228C97.5725 197.514 97.6071 198.608 98.1808 199.67C98.7545 200.732 99.6499 201.36 100.181 201.073Z" fill="#212121"/>
<path d="M85.019 239.207C89.3898 233.835 96.7654 238.388 101.227 241.757C105.689 245.217 115.887 250.225 115.887 250.225L104.869 266.251C104.869 266.251 94.58 260.423 87.2044 254.14C79.8288 247.857 83.4711 241.119 85.019 239.207Z" fill="#224773"/>
<path d="M154.222 349.386L151.582 357.035H169.793C169.793 357.035 171.068 354.03 173.071 349.386H154.222Z" fill="#547851"/>
<path d="M181.813 352.755L197.565 348.567C197.565 348.567 197.019 346.29 196.109 342.557L180.265 346.928L181.813 352.755Z" fill="#4B6B48"/>
<path d="M115.432 222.726C115.432 222.726 118.892 234.199 118.71 241.119" stroke="#152B45" stroke-miterlimit="10"/>
<path d="M113.793 249.223L103.139 265.34" stroke="#18314F" stroke-miterlimit="10"/>
<path d="M133.552 351.845H65.7148V358.401H133.552V351.845Z" fill="#AB843E"/>
<path d="M139.926 370.967C138.378 371.695 136.557 371.058 135.647 369.51L122.808 346.29L117.891 337.458L125.995 333.36L130.547 343.285L141.292 366.687C142.112 368.326 141.474 370.238 139.926 370.967Z" fill="#CFA04B"/>
<path d="M79.9198 337.458L75.7311 345.015L62.0726 369.601C61.162 371.24 59.3409 371.877 57.7929 371.058C56.2449 370.329 55.6986 368.417 56.427 366.687L67.9913 341.464L71.7246 333.36L79.9198 337.458Z" fill="#CFA04B"/>
<path opacity="0.2" d="M71.8156 333.36L79.9197 337.458L75.7311 345.015C73.0904 344.014 70.5408 342.83 68.0823 341.464L71.8156 333.36Z" fill="black"/>
<path opacity="0.2" d="M130.547 343.285C127.998 344.469 125.448 345.471 122.808 346.29L117.891 337.458L125.995 333.36L130.547 343.285Z" fill="black"/>
<path d="M93.4873 280.456L81.832 232.014C80.4661 226.186 73.7279 223.363 68.5376 226.368C49.0514 237.841 36.3034 259.422 37.3051 283.916C38.762 316.97 65.897 343.649 99.0418 344.469C122.899 345.106 143.842 332.449 155.133 313.51C157.5 309.503 154.587 304.495 150.034 304.495H123.809C109.422 304.404 96.8564 294.479 93.4873 280.456Z" fill="#F46A4A"/>
<path d="M384.506 53.0862C373.67 53.0862 364.838 61.9187 364.838 72.7545C364.838 77.8537 366.75 82.4976 369.937 85.9578L364.838 95.2456L374.49 89.6911C377.403 91.4212 380.864 92.4228 384.506 92.4228C395.342 92.4228 404.174 83.5903 404.174 72.7545C404.174 61.9187 395.433 53.0862 384.506 53.0862Z" fill="#FFD082"/>
<path d="M389.059 79.5838L387.055 71.3887C387.966 70.6602 388.603 69.5676 388.603 68.2928C388.603 66.1074 386.782 64.2863 384.597 64.2863C382.411 64.2863 380.59 66.1074 380.59 68.2928C380.59 69.5676 381.228 70.6602 382.138 71.3887L380.135 79.5838H389.059Z" fill="#9C783B"/>
<path d="M363.17 203.573L395.313 203.482C395.313 203.482 400.321 217.323 401.232 238.539C402.142 259.755 402.415 275.326 402.415 275.326C409.154 284.705 409.245 327.047 409.063 343.346L412.25 352.178C412.25 352.178 385.843 354.91 384.659 353.089C383.476 351.268 400.867 345.258 401.05 341.98C401.141 338.611 389.03 285.798 387.755 277.694C386.389 269.589 377.921 236.536 377.921 236.536L365.719 279.242C365.719 279.242 372.731 293.355 372.913 339.248L374.552 349.082C374.552 349.082 347.417 353.544 347.963 350.903C348.51 348.263 364.991 342.708 363.898 336.608C362.806 330.507 355.248 299.001 352.334 280.243C348.783 257.479 363.17 203.573 363.17 203.573Z" fill="#1D3C61"/>
<path opacity="0.2" d="M399.684 222.422C397.863 210.585 395.313 203.482 395.313 203.482L363.17 203.573C363.17 203.573 361.167 211.04 358.89 221.602C364.809 223.15 381.108 226.52 399.684 222.422Z" fill="black"/>
<path d="M393.583 165.784C393.583 165.784 410.61 195.924 417.44 195.833C424.269 195.742 432.555 160.958 432.555 160.958C432.555 160.958 435.924 159.41 438.018 155.677C440.204 151.944 444.21 149.849 443.755 148.848C443.391 147.755 438.656 151.488 438.656 151.488C438.656 151.488 444.757 144.659 444.484 144.113C444.21 143.567 437.745 148.848 437.745 148.848C437.745 148.848 444.119 141.381 443.755 140.653C443.3 139.924 436.562 146.025 436.562 146.025C436.562 146.025 442.298 137.83 441.479 137.193C440.568 136.555 432.009 147.118 432.009 147.118C432.009 147.118 431.553 146.48 432.282 143.931C433.01 141.381 433.192 139.742 432.373 139.378C431.553 139.014 429.914 143.111 428.913 145.752C427.911 148.301 427.729 156.315 427.729 156.315C427.729 156.315 417.986 173.797 415.892 179.989L404.054 158.045L393.583 165.784Z" fill="#AD7052"/>
<path opacity="0.2" d="M407.605 164.419L404.509 158.682C404.327 158.5 404.054 158.227 403.872 158.045L393.583 165.784C393.583 165.784 395.404 169.063 398.135 173.433L407.605 164.419Z" fill="black"/>
<path d="M344.594 166.968C344.594 166.968 333.212 187.911 331.664 188.184C330.207 188.458 307.625 183.541 307.625 183.541C307.625 183.541 306.168 180.171 303.71 179.079C301.342 177.986 291.508 174.071 291.144 174.435C290.779 174.799 294.513 178.441 294.513 178.441C294.513 178.441 284.588 174.071 284.132 174.799C283.677 175.528 292.51 180.08 292.51 180.08C292.51 180.08 284.952 177.622 284.679 178.168C284.405 178.715 291.781 182.357 291.781 182.357C291.781 182.357 286.044 180.08 285.589 180.991C285.134 181.902 292.692 185.271 292.692 185.271C292.692 185.271 288.048 183.905 288.048 184.633C288.048 185.362 296.698 188.276 306.168 190.097C306.168 190.097 330.753 199.567 336.763 200.659C342.773 201.752 355.157 172.705 355.157 172.705L344.594 166.968Z" fill="#AD7052"/>
<path opacity="0.2" d="M342.135 171.521C344.594 173.069 348.783 175.346 353.609 176.074C354.519 174.071 355.066 172.796 355.066 172.796L344.594 167.059C344.594 166.968 343.592 168.88 342.135 171.521Z" fill="black"/>
<path d="M351.332 155.768C348.054 157.407 343.319 162.779 341.407 167.241C341.407 167.241 345.322 172.432 354.155 174.344L351.332 155.768Z" fill="#FF6157"/>
<path d="M357.251 152.035L351.333 155.768C351.333 155.768 351.515 174.253 353.882 178.715C356.25 183.176 359.892 183.996 360.529 186.546C362.715 195.924 355.794 219.053 355.794 219.053C355.794 219.053 381.381 223.788 401.141 218.324C401.141 218.324 393.856 188.913 396.133 169.7L393.492 146.845L385.752 145.661L357.251 152.035Z" fill="#FF473B"/>
<path opacity="0.2" d="M395.586 179.352C395.586 175.983 395.677 172.796 396.041 169.791L394.766 158.409L390.305 157.498C390.305 164.419 393.583 173.98 395.586 179.352Z" fill="black"/>
<path d="M393.401 146.845C399.501 147.937 406.24 153.583 410.975 159.502L396.497 172.705C396.497 172.705 390.305 165.876 390.305 158.227C390.305 151.58 393.401 146.845 393.401 146.845Z" fill="#FF6157"/>
<path d="M374.461 349.173L372.822 339.339C372.731 317.121 371.092 302.37 369.362 293.082C363.079 294.175 358.071 294.63 354.793 294.812C358.253 312.295 362.897 332.055 363.716 336.79C364.809 342.89 348.328 348.445 347.781 351.086C347.326 353.635 374.461 349.173 374.461 349.173Z" fill="#AD7052"/>
<path d="M409.062 343.437C409.245 332.237 409.244 308.744 407.059 292.081C400.958 293.538 393.492 292.809 390.851 292.445C394.857 311.021 401.231 339.521 401.14 341.98C401.049 345.349 383.566 351.268 384.75 353.089C385.934 354.91 412.34 352.178 412.34 352.178L409.062 343.437Z" fill="#AD7052"/>
<path d="M374.461 349.173L373.368 342.344L367.723 342.708C366.812 340.978 364.718 340.25 362.988 339.885C359.619 344.62 348.418 348.809 347.963 350.994C347.326 353.635 374.461 349.173 374.461 349.173Z" fill="black"/>
<path d="M412.25 352.269L410.246 346.715H404.874C403.508 345.44 400.867 344.803 398.955 344.529C394.311 347.807 383.84 351.814 384.75 353.18C385.843 354.91 412.25 352.269 412.25 352.269Z" fill="black"/>
<path opacity="0.2" d="M369.362 292.991C367.54 283.066 365.628 279.242 365.628 279.242L377.83 236.536C377.83 236.536 360.893 272.685 361.075 278.058C361.349 283.339 369.362 292.991 369.362 292.991Z" fill="black"/>
<path d="M358.207 119.226C358.207 119.226 351.435 125.122 353.463 131.341C353.463 131.341 348.918 129.117 346.537 119.578C344.605 112.746 358.207 119.226 358.207 119.226Z" fill="#1A1A1A"/>
<path d="M370.965 118.31C369.622 117.947 368.358 117.245 367.687 116.052C366.495 114.165 364.721 112.83 362.744 112.312C361.761 112.084 360.957 111.305 360.799 110.354L358.237 110.78L358.543 112.62C355.188 113.96 353.13 117.822 353.816 121.945C354.565 126.448 358.33 129.602 362.313 129.201C363.58 133.162 367.184 135.756 370.928 135.133C375.066 134.445 377.849 130.071 377.079 125.441C376.543 121.815 374.056 119.034 370.965 118.31Z" fill="#1A1A1A"/>
<path d="M363.514 151.129L375.315 147.974L369.291 135.663L361.908 137.885L363.514 151.129Z" fill="#AD7052"/>
<path d="M361.907 137.885L369.484 135.631L371.32 139.498C369.901 141.721 368.48 146.329 365.579 146.812C364.612 146.973 363.806 146.908 362.935 146.457L361.907 137.885Z" fill="#B2775A"/>
<path d="M362.549 144.137C365.064 143.719 367.741 141.882 371.063 137.952C373.063 135.632 374.031 131.895 373.645 129.574L371.555 117.007L352.017 120.257C352.017 120.257 351.595 127.281 354.268 133.791C356.233 138.432 360.615 144.459 362.549 144.137Z" fill="#AD7052"/>
<path d="M373.519 121.647L369.844 122.258L370.133 123.998L373.809 123.387L373.519 121.647Z" fill="white"/>
<path d="M369.971 127.801C370.389 130.315 371.871 132.055 373.419 131.798C374.966 131.54 375.967 127.996 375.549 125.482C375.131 122.969 373.455 122.453 371.907 122.71C370.392 123.161 369.553 125.288 369.971 127.801Z" fill="#AD7052"/>
<path d="M368.873 111.176L361.495 112.502C359.542 112.853 357.517 112.806 355.602 112.123C352.531 111.236 349.13 112.258 347.607 114.999C346.3 117.7 346.186 120.804 351.497 122.932C354.135 123.897 357.537 121.641 359.85 122.047C360.067 122.008 360.068 122.008 360.285 121.969L366.794 120.799C369.181 120.37 371.023 121.889 371.598 123.841C371.812 125.036 373.293 125.797 374.595 125.563L374.812 125.524L375.36 122.342L378.512 118.692L378.226 117.099C377.51 113.117 373.213 110.395 368.873 111.176Z" fill="#454545"/>
<path d="M348.732 119.414C350.327 121.819 349.992 123.401 359.667 124.081C369.31 124.576 371.234 121.776 375.372 125.094C375.372 125.094 371.485 118.491 366.004 117.876C360.524 117.261 352.251 119.019 347.51 114.466C347.673 114.248 347.678 117.872 348.732 119.414Z" fill="#1A1A1A"/>
<path d="M352.02 114.689L351.936 115.037C351.368 117.398 352.949 119.738 355.351 120.092C355.75 120.151 356.138 120.267 356.504 120.439L361.959 122.997C362.965 123.469 364.004 123.868 365.068 124.19L368.474 125.224C369.641 125.578 370.874 125.658 372.077 125.458L373.463 125.227C374.192 125.106 374.941 125.215 375.605 125.541L378.559 126.988C379.015 127.211 379.561 126.966 379.697 126.478C379.729 126.364 379.735 126.244 379.716 126.127L379.402 124.239L378.543 119.076L378.113 116.494C377.955 115.541 377.284 114.752 376.369 114.441L373.616 113.507C372.996 113.296 372.542 112.762 372.434 112.117C372.38 111.79 372.235 111.484 372.016 111.235L371.521 110.673C370.519 109.532 368.998 108.99 367.5 109.239L361.237 110.281L356.902 111.002L355.89 111.171C354.978 111.322 354.129 111.733 353.443 112.354L353.361 112.429C352.697 113.031 352.23 113.818 352.02 114.689Z" fill="#1A1A1A"/>
<path fill-rule="evenodd" clip-rule="evenodd" d="M372.215 113.899C373.339 113.712 374.009 112.097 373.71 110.298C373.411 108.5 372.253 107.189 371.13 107.376C370.006 107.562 369.335 109.178 369.634 110.976C369.933 112.775 371.091 114.086 372.215 113.899Z" fill="#1A1A1A"/>
<path fill-rule="evenodd" clip-rule="evenodd" d="M375.18 115.599C376.304 115.412 376.975 113.797 376.675 111.998C376.376 110.2 375.219 108.888 374.095 109.075C372.971 109.262 372.3 110.878 372.599 112.676C372.898 114.475 374.056 115.786 375.18 115.599Z" fill="#1A1A1A"/>
<path fill-rule="evenodd" clip-rule="evenodd" d="M378.194 118.543C379.318 118.356 379.989 116.741 379.69 114.942C379.391 113.144 378.233 111.833 377.109 112.02C375.985 112.207 375.314 113.822 375.614 115.621C375.894 117.422 377.071 118.73 378.194 118.543Z" fill="#1A1A1A"/>
<path fill-rule="evenodd" clip-rule="evenodd" d="M379.662 123.249C380.786 123.062 381.457 121.447 381.158 119.648C380.859 117.85 379.701 116.539 378.577 116.726C377.453 116.912 376.782 118.528 377.081 120.326C377.381 122.125 378.538 123.436 379.662 123.249Z" fill="#1A1A1A"/>
<path fill-rule="evenodd" clip-rule="evenodd" d="M379.519 127.689C380.643 127.502 381.314 125.887 381.015 124.089C380.716 122.29 379.558 120.979 378.434 121.166C377.31 121.353 376.64 122.968 376.939 124.767C377.238 126.565 378.396 127.876 379.519 127.689Z" fill="#1A1A1A"/>
<path fill-rule="evenodd" clip-rule="evenodd" d="M378.342 131.551C379.466 131.364 380.137 129.749 379.838 127.95C379.538 126.152 378.381 124.84 377.257 125.027C376.133 125.214 375.462 126.83 375.761 128.628C376.06 130.427 377.218 131.738 378.342 131.551Z" fill="#1A1A1A"/>
<path fill-rule="evenodd" clip-rule="evenodd" d="M376.017 134.287C377.141 134.1 377.811 132.485 377.512 130.686C377.213 128.888 376.055 127.577 374.932 127.764C373.808 127.951 373.137 129.566 373.436 131.364C373.735 133.163 374.893 134.474 376.017 134.287Z" fill="#1A1A1A"/>
<path fill-rule="evenodd" clip-rule="evenodd" d="M370.935 118.857C371.437 121.112 373.704 122.53 375.991 122.018C378.277 121.505 379.729 119.254 379.227 116.999C378.726 114.744 376.458 113.326 374.172 113.839C371.885 114.351 370.433 116.602 370.935 118.857Z" fill="#1A1A1A"/>
<path fill-rule="evenodd" clip-rule="evenodd" d="M367.209 114.357C367.71 116.612 369.978 118.03 372.265 117.517C374.551 117.005 376.003 114.754 375.501 112.499C375 110.244 372.732 108.826 370.446 109.338C368.159 109.851 366.716 112.14 367.209 114.357Z" fill="#1A1A1A"/>
<path fill-rule="evenodd" clip-rule="evenodd" d="M361.936 110.403C362.438 112.658 364.706 114.076 366.992 113.563C369.278 113.051 370.73 110.799 370.228 108.544C369.727 106.289 367.459 104.872 365.173 105.384C362.887 105.896 361.435 108.148 361.936 110.403Z" fill="#1A1A1A"/>
<path fill-rule="evenodd" clip-rule="evenodd" d="M355.43 110.416C355.932 112.671 358.199 114.089 360.486 113.577C362.772 113.064 364.224 110.813 363.722 108.558C363.221 106.303 360.953 104.885 358.667 105.398C356.38 105.91 354.928 108.161 355.43 110.416Z" fill="#1A1A1A"/>
<path fill-rule="evenodd" clip-rule="evenodd" d="M350.358 113.399C350.859 115.654 353.127 117.072 355.413 116.559C357.7 116.047 359.151 113.796 358.65 111.541C358.148 109.286 355.881 107.868 353.594 108.38C351.308 108.893 349.856 111.144 350.358 113.399Z" fill="#1A1A1A"/>
<path fill-rule="evenodd" clip-rule="evenodd" d="M346.082 117.333C346.619 119.748 349.048 121.266 351.497 120.717C353.945 120.169 355.501 117.757 354.963 115.342C354.426 112.927 351.997 111.408 349.549 111.957C347.1 112.506 345.545 114.917 346.082 117.333Z" fill="#1A1A1A"/>
<path fill-rule="evenodd" clip-rule="evenodd" d="M344.907 124.01C345.409 126.265 347.677 127.683 349.963 127.171C352.249 126.658 353.701 124.407 353.199 122.152C352.698 119.897 350.43 118.479 348.144 118.991C345.857 119.504 344.406 121.755 344.907 124.01Z" fill="#1A1A1A"/>
<path fill-rule="evenodd" clip-rule="evenodd" d="M359.703 112.067C360.052 113.634 361.611 114.609 363.2 114.253C364.788 113.897 365.786 112.349 365.438 110.782C365.089 109.215 363.53 108.24 361.942 108.596C360.353 108.952 359.355 110.5 359.703 112.067Z" fill="#1A1A1A"/>
<path fill-rule="evenodd" clip-rule="evenodd" d="M376.57 120.223C377.67 120.04 378.389 118.856 378.176 117.576C377.963 116.295 376.9 115.407 375.8 115.59C374.699 115.773 373.981 116.958 374.194 118.238C374.407 119.518 375.47 120.406 376.57 120.223Z" fill="#1A1A1A"/>
<path fill-rule="evenodd" clip-rule="evenodd" d="M362.874 115.168C363.299 117.079 365.189 118.261 367.126 117.826C369.064 117.392 370.274 115.516 369.849 113.605C369.424 111.694 367.534 110.513 365.596 110.947C363.659 111.381 362.457 113.295 362.874 115.168Z" fill="#1A1A1A"/>
<path fill-rule="evenodd" clip-rule="evenodd" d="M370.305 123.109C370.738 125.059 372.675 126.27 374.652 125.827C376.628 125.384 377.868 123.461 377.434 121.511C377.001 119.562 375.064 118.351 373.088 118.794C371.111 119.237 369.88 121.198 370.305 123.109Z" fill="#1A1A1A"/>
<path fill-rule="evenodd" clip-rule="evenodd" d="M365.738 118.9C366.112 120.582 367.813 121.645 369.518 121.263C371.223 120.881 372.312 119.192 371.938 117.51C371.564 115.829 369.863 114.765 368.158 115.148C366.453 115.53 365.364 117.218 365.738 118.9Z" fill="#1A1A1A"/>
<path fill-rule="evenodd" clip-rule="evenodd" d="M367.044 116.36C367.418 118.042 369.119 119.105 370.824 118.723C372.529 118.341 373.618 116.652 373.244 114.97C372.87 113.289 371.169 112.226 369.464 112.608C367.729 113.037 366.679 114.717 367.044 116.36Z" fill="#1A1A1A"/>
<path fill-rule="evenodd" clip-rule="evenodd" d="M369.637 118.869C370.011 120.551 371.712 121.614 373.416 121.232C375.121 120.85 376.21 119.161 375.836 117.479C375.462 115.798 373.761 114.734 372.056 115.117C370.321 115.546 369.263 117.187 369.637 118.869Z" fill="#1A1A1A"/>
<path fill-rule="evenodd" clip-rule="evenodd" d="M371.918 121.808C372.207 123.108 373.53 123.935 374.847 123.64C376.165 123.344 377.012 122.031 376.723 120.732C376.434 119.432 375.111 118.605 373.793 118.9C372.476 119.196 371.629 120.509 371.918 121.808Z" fill="#1A1A1A"/>
<path fill-rule="evenodd" clip-rule="evenodd" d="M372.202 116.94C373.459 116.731 374.257 115.377 374.019 113.944C373.775 112.481 372.561 111.492 371.33 111.697C370.099 111.902 369.275 113.261 369.513 114.693C369.752 116.126 370.945 117.149 372.202 116.94Z" fill="#1A1A1A"/>
<path fill-rule="evenodd" clip-rule="evenodd" d="M374.401 118.673C375.554 118.481 376.314 117.227 376.091 115.886C375.868 114.544 374.743 113.604 373.59 113.796C372.438 113.987 371.677 115.242 371.9 116.583C372.15 117.92 373.275 118.86 374.401 118.673Z" fill="#1A1A1A"/>
<path d="M57.9752 139.226C68.811 139.226 77.6435 148.059 77.6435 158.895C77.6435 163.994 75.7313 168.638 72.5443 172.098L77.6435 181.386L67.9915 175.831C65.0777 177.561 61.6175 178.563 57.9752 178.563C47.1394 178.563 38.3069 169.73 38.3069 158.895C38.3069 148.059 47.0484 139.226 57.9752 139.226Z" fill="#FFD082"/>
<path d="M55.5167 160.716C54.1508 159.714 52.1476 159.805 50.9638 161.08C49.598 162.446 49.598 164.722 50.9638 166.088C52.3297 167.454 54.6061 167.454 55.972 166.088C57.2468 164.813 57.3378 162.901 56.3362 161.535L62.346 155.526L63.985 157.165L64.8045 156.345L63.1655 154.706L64.7135 153.158L66.3525 154.797L67.172 153.978L64.6224 151.428L55.5167 160.716ZM55.1525 165.269C54.2419 166.179 52.6939 166.179 51.7834 165.269C50.8728 164.358 50.8728 162.81 51.7834 161.9C52.6939 160.989 54.2419 160.989 55.1525 161.9C56.063 162.81 56.063 164.358 55.1525 165.269Z" fill="#9C783B"/>
<path d="M253.292 238.388C253.292 238.388 244.551 233.288 241.728 228.189C241.728 228.189 242.73 220.54 244.278 217.171C245.917 213.802 250.47 215.987 251.744 217.171C253.019 218.355 256.479 234.381 256.479 234.381L253.292 238.388Z" fill="#C29888"/>
<path d="M247.009 227.37C246.372 227.279 245.917 226.641 246.008 226.004L248.557 210.251L250.834 210.615L248.284 226.368C248.284 227.005 247.647 227.461 247.009 227.37Z" fill="#212121"/>
<path d="M248.648 210.342L250.925 210.706L250.379 207.064L248.648 210.342Z" fill="#212121"/>
<path d="M248.648 210.342L250.925 210.706L250.743 209.431L249.286 209.158L248.648 210.342Z" fill="#524039"/>
<path d="M288.167 338.55C288.258 339.188 287.348 346.928 289.169 351.572C290.99 356.215 294.086 359.22 293.722 364.684C293.722 364.684 274.236 370.147 254.932 363.136C254.932 363.136 254.932 360.313 263.309 358.674C271.686 357.035 276.876 354.03 277.696 349.659C278.424 345.289 278.697 338.186 278.697 338.186L288.167 338.55Z" fill="white"/>
<path d="M374.763 343.285C374.763 343.285 384.415 342.375 388.603 341.1C392.883 339.825 395.068 339.188 395.068 339.188C395.068 339.188 399.894 354.121 399.075 362.225C398.346 370.329 391.244 371.968 382.685 370.876C374.125 369.783 385.78 368.69 386.327 363.5C387.055 357.126 384.597 352.755 376.584 352.573L374.763 343.285Z" fill="white"/>
<path d="M337.429 318.791C335.699 318.7 334.06 318.518 332.33 318.154C317.306 315.513 303.556 305.406 298.002 300.944C296.362 299.578 295.452 298.758 295.452 298.758L290.262 341.373L277.24 340.007C277.24 340.007 273.325 298.394 275.419 287.741C276.785 280.82 278.971 273.718 287.712 273.171C289.442 273.08 291.445 273.171 293.722 273.627C294.177 273.718 294.632 273.809 295.088 273.9C309.202 277.269 333.423 290.29 333.423 290.29L352.727 292.658C352.818 292.658 358.828 319.975 337.429 318.791Z" fill="#1D3C61"/>
<path d="M284.07 338.55C284.161 338.004 283.159 289.38 288.987 285.737C294.815 282.095 337.976 305.132 337.976 305.132" stroke="#18314F" stroke-miterlimit="10"/>
<path opacity="0.2" d="M344.896 293.113L332.33 318.154C317.306 315.513 303.556 305.406 298.002 300.944L287.712 273.171C289.442 273.08 291.445 273.171 293.722 273.627C294.177 273.718 294.632 273.809 295.088 273.9L306.834 292.293L344.896 293.113Z" fill="black"/>
<path d="M310.841 289.562C310.841 289.562 314.119 294.388 314.301 308.775C314.301 308.775 309.475 317.425 308.018 317.243C306.561 316.97 310.294 312.508 310.294 312.508C310.294 312.508 305.468 318.154 304.102 317.698C302.736 317.243 307.198 312.69 307.198 312.69C307.198 312.69 301.826 317.425 300.824 316.879C299.823 316.332 304.831 312.053 304.831 312.053C304.831 312.053 298.275 316.332 297.91 315.422C297.546 314.511 303.647 309.685 303.647 309.685C303.647 309.685 303.01 298.212 304.558 292.202L310.841 289.562Z" fill="#C29888"/>
<path d="M370.392 287.467C370.392 287.467 372.486 297.21 369.026 306.68C365.566 316.15 349.813 341.282 349.813 341.282H377.13L377.312 354.03C377.312 354.03 342.073 366.869 330.327 363.955C318.489 361.041 314.756 355.487 319.309 341.373C323.862 327.35 342.528 291.747 342.528 291.747L370.392 287.467Z" fill="#224773"/>
<path d="M357.735 292.84C357.735 292.84 356.187 304.95 349.449 318.427C342.802 331.903 331.419 349.022 335.244 352.118C339.068 355.214 373.397 348.476 373.397 348.476" stroke="#1D3C61" stroke-miterlimit="10"/>
<path opacity="0.2" d="M341.254 293.841C341.8 293.932 350.541 299.123 370.847 298.212C371.394 292.202 370.392 287.467 370.392 287.467L349.722 290.563L341.254 293.841Z" fill="black"/>
<path d="M311.66 183.935C324.226 185.21 326.411 191.493 325.319 203.057C324.226 214.622 324.954 219.63 326.867 223.454L312.844 231.012C312.844 231.012 309.748 223.636 305.65 222.817C301.644 222.088 297.182 223.09 297.182 223.09C297.182 223.09 295.27 215.441 295.361 211.253L291.081 210.706C291.081 210.706 294.723 201.965 295.725 196.501C296.727 191.22 300.096 182.752 311.66 183.935Z" fill="#C29888"/>
<path opacity="0.2" d="M305.65 222.908C309.657 223.636 312.844 231.103 312.844 231.103L326.867 223.545C325.683 221.178 324.954 218.355 324.863 213.893L315.484 212.892L297.182 223.181C297.182 223.181 301.644 222.179 305.65 222.908Z" fill="black"/>
<path d="M325.319 203.057C326.411 191.493 324.226 185.21 311.66 183.935C302.008 182.934 298.001 188.761 296.362 193.77L309.657 193.314C309.657 193.314 310.749 196.592 313.117 198.322L309.839 208.43L313.663 208.794C313.663 208.794 314.756 203.24 317.67 202.966C320.584 202.693 321.585 205.516 320.493 207.883C319.4 210.251 315.393 212.892 315.393 212.892C315.393 212.892 317.852 217.444 324.954 217.171C324.681 213.802 324.772 209.431 325.319 203.057Z" fill="black"/>
<path d="M259.94 233.015C259.94 232.833 257.754 220.631 253.839 216.625C249.923 212.618 247.374 213.074 247.101 214.075C246.827 215.077 249.195 218.082 249.286 220.085C249.377 221.997 248.284 231.558 255.205 237.204L259.94 233.015Z" fill="#C29888"/>
<path d="M302.736 271.35L312.844 290.745L303.283 295.754C295.907 285.282 291.445 278.453 289.351 273.809C287.894 270.44 287.712 268.163 288.623 266.433C289.442 264.703 292.902 258.602 296.636 251.955C302.008 242.394 308.018 231.74 308.018 231.74L309.202 233.562L318.58 247.858L316.122 250.953L313.663 254.049L301.553 269.256L302.736 271.35Z" fill="#9C6E2E"/>
<path d="M299.062 203.958C299.712 204.025 300.369 202.822 300.53 201.272C300.69 199.721 300.292 198.41 299.642 198.342C298.992 198.275 298.335 199.478 298.175 201.029C298.014 202.579 298.412 203.891 299.062 203.958Z" fill="#212121"/>
<path d="M297.091 214.622C297.091 214.622 301.735 214.348 305.377 210.979" stroke="#524039" stroke-miterlimit="10"/>
<path d="M304.376 209.887L306.379 212.254" stroke="#524039" stroke-miterlimit="10"/>
<path d="M315.393 209.249C316.122 209.34 316.577 208.339 316.122 207.701C315.667 207.064 316.304 205.152 317.397 204.879C318.489 204.605 319.764 204.879 319.673 206.518" stroke="#524039" stroke-width="0.75" stroke-miterlimit="10"/>
<path d="M376.857 290.654C376.857 290.654 358.737 302.31 331.146 290.29C331.146 290.29 331.966 284.28 328.232 276.267C327.049 273.809 323.953 269.893 320.402 264.885C318.125 261.698 315.758 257.965 313.663 253.958C313.208 253.048 312.662 252.046 312.206 251.045C309.839 245.854 308.109 240.209 307.745 234.199L309.202 233.471L331.511 221.906C331.511 221.906 358.372 243.76 376.857 290.654Z" fill="#BF8739"/>
<path opacity="0.2" d="M340.98 249.497C340.98 249.497 334.606 257.783 320.402 264.885C318.125 261.698 315.758 257.965 313.663 253.958L301.553 269.165L302.736 271.35C298.639 272.352 294.268 273.171 289.442 273.809C287.985 270.44 287.803 268.163 288.714 266.433C289.533 264.703 292.993 258.602 296.727 251.955L312.389 251.136L316.304 250.953L340.98 249.497Z" fill="black"/>
<path d="M260.304 228.189C260.304 228.189 277.149 243.214 292.629 248.677C292.629 248.677 319.673 233.47 329.143 231.012C338.522 228.553 348.174 235.929 342.164 247.949C337.976 256.144 309.202 262.153 293.084 266.069C289.533 266.979 285.709 266.251 282.704 264.157C274.964 258.784 260.031 247.766 251.653 237.841L260.304 228.189Z" fill="#D99941"/>
<path d="M305.377 230.284C305.377 230.284 325.865 219.903 331.237 217.353L334.88 223.545L307.654 235.656L305.377 230.284Z" fill="#D99941"/>
<path d="M293.722 364.684C294.177 359.22 290.99 356.124 289.169 351.571C289.078 351.48 289.078 351.298 288.987 351.116L277.332 350.479C276.057 354.394 271.049 357.035 263.218 358.583C254.84 360.222 254.84 363.045 254.84 363.045C274.236 370.147 293.722 364.684 293.722 364.684Z" fill="#9C6E2E"/>
<path d="M382.776 370.693C391.335 371.786 398.346 370.147 399.166 362.043C399.894 353.939 395.159 339.006 395.159 339.006C395.159 339.006 392.974 339.643 388.694 340.918C387.42 341.282 385.598 341.646 383.777 342.01C384.141 344.924 384.324 349.659 383.049 353.848C386.054 355.669 386.964 359.038 386.509 363.227C385.872 368.508 374.216 369.601 382.776 370.693Z" fill="#9C6E2E"/>
<path d="M377.13 341.282H371.849V355.851C375.218 354.759 377.312 353.939 377.312 353.939L377.13 341.282Z" fill="#29558A"/>
<path d="M276.785 334.544C277.058 337.913 277.24 340.007 277.24 340.007L290.262 341.373L290.99 335.636L276.785 334.544Z" fill="#224773"/>
<path opacity="0.3" d="M453.853 262.382H438.091V280.834H453.853V262.382Z" fill="#737AFB"/>
<path opacity="0.3" d="M508.841 263.387H493.08V280.835H508.841V263.387Z" fill="#737AFB"/>
<path d="M460.846 142.13L454.446 150.415L451.247 157.444L448.284 166.356C448.284 166.356 443.069 171.503 443.425 171.503C443.781 171.503 443.069 177.779 443.662 178.658C444.255 179.536 450.062 186.942 450.062 186.942C450.062 186.942 455.75 190.834 458.002 191.336C460.253 191.838 471.63 197.11 471.63 197.11L478.623 190.08L476.015 186.44C476.015 186.44 483.244 181.796 484.193 181.168C485.022 180.54 488.577 176.9 488.577 176.9C488.577 176.9 488.459 173.637 487.866 171.628C487.392 169.494 483.837 159.327 483.837 159.327C483.837 159.327 479.215 152.297 478.623 151.042C478.03 149.787 475.423 145.77 475.423 145.77L460.846 142.13Z" fill="#37354C"/>
<path d="M489.052 240.039L444.492 240.416L444.136 192.34C444.136 189.453 446.27 187.193 448.995 187.193L483.956 186.942C486.682 186.942 488.815 189.202 488.815 192.089L489.052 240.039Z" fill="#737AFB"/>
<path d="M457.882 187.068C457.882 187.068 461.2 191.21 461.2 199.871C461.2 208.532 461.437 224.348 461.437 224.348H471.392V199.369C471.392 199.369 470.563 190.833 476.962 184.306L466.059 184.557L457.882 187.068Z" fill="#37354C"/>
<path d="M466.059 197.109C463.096 197.109 460.607 194.599 460.607 191.461L460.489 174.013C460.489 173.636 460.844 173.26 461.2 173.26L470.562 173.134C470.917 173.134 471.273 173.511 471.273 173.887L471.391 191.335C471.391 194.473 469.021 197.109 466.059 197.109Z" fill="#94644C"/>
<path d="M484.903 169.871C484.903 169.62 484.903 169.494 484.903 169.243C484.903 167.486 484.666 165.854 484.31 164.222V161.963C484.31 151.042 475.896 142.004 465.467 142.004C455.157 142.004 446.624 150.917 446.624 161.963V169.745H484.903V169.871Z" fill="#9B5342"/>
<path d="M482.889 164.348V162.465C482.889 152.297 475.067 144.138 465.586 144.138C455.987 144.138 448.284 152.423 448.284 162.465V169.996C448.284 170.498 448.284 171.001 448.402 171.503C449.588 180.666 456.935 187.695 465.823 187.695C475.541 187.695 483.482 179.285 483.482 168.992C483.482 167.36 483.244 165.854 482.889 164.348Z" fill="#94644C"/>
<path d="M458.831 173.636C459.551 173.636 460.135 173.018 460.135 172.256C460.135 171.493 459.551 170.875 458.831 170.875C458.111 170.875 457.527 171.493 457.527 172.256C457.527 173.018 458.111 173.636 458.831 173.636Z" fill="#37354C"/>
<path d="M471.511 173.636C472.231 173.636 472.815 173.018 472.815 172.256C472.815 171.493 472.231 170.875 471.511 170.875C470.791 170.875 470.208 171.493 470.208 172.256C470.208 173.018 470.791 173.636 471.511 173.636Z" fill="#37354C"/>
<path d="M357.981 130.511C358.701 130.511 359.284 129.893 359.284 129.13C359.284 128.368 358.701 127.75 357.981 127.75C357.261 127.75 356.677 128.368 356.677 129.13C356.677 129.893 357.261 130.511 357.981 130.511Z" fill="#1A1A1A"/>
<path d="M366.573 130.511C367.293 130.511 367.876 129.893 367.876 129.13C367.876 128.368 367.293 127.75 366.573 127.75C365.853 127.75 365.269 128.368 365.269 129.13C365.269 129.893 365.853 130.511 366.573 130.511Z" fill="#1A1A1A"/>
<path d="M448.283 176.774C450.967 176.774 453.142 174.47 453.142 171.628C453.142 168.786 450.967 166.481 448.283 166.481C445.6 166.481 443.424 168.786 443.424 171.628C443.424 174.47 445.6 176.774 448.283 176.774Z" fill="#94644C"/>
<path d="M482.887 176.774C485.571 176.774 487.746 174.47 487.746 171.628C487.746 168.786 485.571 166.481 482.887 166.481C480.204 166.481 478.028 168.786 478.028 171.628C478.028 174.47 480.204 176.774 482.887 176.774Z" fill="#94644C"/>
<path d="M466.89 261.253L444.965 272.173L448.995 342.844H441.173L425.293 270.416C424.582 267.278 425.885 263.889 428.492 262.131L449.232 248.7L466.89 261.253Z" fill="#BCBACE"/>
<path d="M448.166 168.239C446.506 168.365 445.203 169.871 445.203 171.628C445.203 173.386 446.506 174.892 448.166 175.017V168.239Z" fill="#94644C"/>
<path d="M482.533 168.239C484.192 168.365 485.496 169.871 485.496 171.628C485.496 173.386 484.192 174.892 482.533 175.017V168.239Z" fill="#94644C"/>
<path d="M471.511 201.503H461.438V258.491H471.511V201.503Z" fill="#37354C"/>
<path d="M477.673 164.348C478.147 165.98 478.859 167.737 480.281 168.239C481.466 168.616 482.651 167.862 483.717 167.235C484.31 166.858 484.903 166.356 484.903 165.603C485.021 164.975 484.666 164.473 484.429 163.846C483.362 161.837 482.295 159.703 480.873 158.071C479.57 156.565 477.199 154.055 475.896 156.691C475.066 158.323 477.199 162.59 477.673 164.348Z" fill="#37354C"/>
<path d="M479.57 152.548C475.778 149.536 471.037 147.778 465.823 147.778L466.06 144.515C460.964 144.515 455.987 149.536 452.194 152.548C455.513 156.565 460.372 160.331 465.942 160.331C471.275 160.331 476.252 156.565 479.57 152.548Z" fill="#37354C"/>
<path d="M419.722 230.499C419.011 229.495 418.893 228.24 419.13 226.984C421.618 216.315 439.632 191.335 440.343 190.331C441.528 188.699 447.691 187.319 447.691 187.319L448.402 204.516L432.166 224.725C431.099 226.106 430.862 227.863 431.573 229.495L444.372 257.11L437.617 259.119L419.722 230.499Z" fill="#737AFB"/>
<path d="M478.147 248.7L498.886 262.131C501.493 263.889 502.797 267.152 502.086 270.416L486.205 342.844H478.384L482.413 272.173L460.489 261.253L478.147 248.7Z" fill="#BCBACE"/>
<path d="M510.501 229.997C510.975 228.993 511.212 227.863 510.975 226.859C508.96 216.44 492.962 191.461 492.132 190.331C490.947 188.699 484.784 187.319 484.784 187.319L484.073 204.516L498.057 224.223C499.006 225.604 499.243 227.235 498.65 228.867L488.103 257.11L494.858 259.119L510.501 229.997Z" fill="#737AFB"/>
<path d="M453.498 164.348C453.024 165.98 452.313 167.737 450.891 168.239C449.706 168.616 448.521 167.862 447.454 167.235C446.861 166.858 446.269 166.356 446.269 165.603C446.15 164.975 446.506 164.473 446.743 163.846C447.81 161.837 448.876 159.703 450.298 158.071C451.602 156.565 453.972 154.055 455.276 156.691C456.105 158.323 453.972 162.59 453.498 164.348Z" fill="#37354C"/>
<path d="M441.885 263.261C445.026 263.261 447.573 260.564 447.573 257.236C447.573 253.908 445.026 251.211 441.885 251.211C438.743 251.211 436.196 253.908 436.196 257.236C436.196 260.564 438.743 263.261 441.885 263.261Z" fill="#EEBCC5"/>
<path d="M481.229 147.653C478.858 141.251 465.941 138.992 465.822 138.992C465.704 138.992 452.668 141.251 450.416 147.653C448.046 154.18 441.172 172.256 441.409 177.277C441.646 182.172 450.179 187.193 450.179 187.193H458.001C458.001 187.193 446.387 178.908 445.201 175.143C444.016 171.502 448.401 167.486 449.586 166.481C454.445 157.695 459.186 152.297 462.267 149.285C464.282 147.276 467.481 147.276 469.496 149.285C472.577 152.297 477.318 157.695 482.177 166.481C483.362 167.486 487.628 171.502 486.562 175.143C485.376 178.783 474.948 187.067 474.948 187.067H481.584C481.584 187.067 489.998 182.172 490.354 177.151C490.472 172.256 483.48 154.055 481.229 147.653Z" fill="#737AFB"/>
<path d="M491.184 264.014C494.326 264.014 496.872 261.317 496.872 257.989C496.872 254.661 494.326 251.964 491.184 251.964C488.042 251.964 485.495 254.661 485.495 257.989C485.495 261.317 488.042 264.014 491.184 264.014Z" fill="#EEBCC5"/>
<path d="M488.458 231.252V256.985C488.458 256.985 474.711 262.382 472.815 262.131C470.8 261.88 470.8 239.286 470.8 239.286L473.289 232.382L488.458 231.252Z" fill="#737AFB"/>
<path d="M444.492 231.252V256.985C444.492 256.985 458.239 262.382 460.135 262.131C462.15 261.88 462.15 239.286 462.15 239.286L459.661 232.382L444.492 231.252Z" fill="#737AFB"/>
<path d="M448.993 342.844L450.06 353.388C450.06 353.388 439.986 371.087 435.957 371.589C431.928 371.965 433.705 364.559 435.957 361.17C438.209 357.781 442.712 350.626 442.712 350.626L444.371 342.969H448.993V342.844Z" fill="black"/>
<path d="M479.925 342.844L478.859 353.388C478.859 353.388 488.932 371.087 492.961 371.589C496.991 371.965 495.213 364.559 492.961 361.17C490.71 357.781 486.206 350.626 486.206 350.626L484.547 342.969H479.925V342.844Z" fill="black"/>
<path d="M441.173 264.265H492.488C494.385 264.265 496.162 262.885 496.518 260.876L500.903 241.169C501.495 237.403 498.769 233.888 495.096 233.888L436.314 234.39C432.641 234.39 429.915 237.905 430.626 241.796L437.144 261.378C437.855 263.136 439.396 264.265 441.173 264.265Z" fill="white"/>
<path d="M472.578 234.139L436.314 234.391C432.64 234.391 429.915 237.905 430.626 241.796L437.144 261.378C437.736 263.136 439.277 264.265 441.055 264.265H450.298L472.578 234.139Z" fill="url(#paint0_linear)"/>
<path d="M465.231 256.734C468.111 256.734 470.445 254.486 470.445 251.713C470.445 248.94 468.111 246.692 465.231 246.692C462.351 246.692 460.016 248.94 460.016 251.713C460.016 254.486 462.351 256.734 465.231 256.734Z" fill="#737AFB"/>
<path d="M200.766 71.6724C199.98 70.4987 199.654 69.228 199.795 67.8778C199.936 66.5277 200.51 65.3628 201.516 64.3745C202.522 63.395 203.687 62.839 205.001 62.7243C206.316 62.6096 207.561 62.9361 208.725 63.7215L200.766 71.6724Z" fill="#F46A4A"/>
<path d="M218 68.5044L205.496 81L199.724 75.2287L200.616 74.3286C202.036 75.5376 203.731 76.1288 205.699 76.1024C207.852 76.0671 209.625 75.3346 211.02 73.8874C212.14 72.749 212.829 71.39 213.094 69.8104C213.358 68.2309 213.129 66.6954 212.405 65.1864L210.932 66.6601C211.717 68.8574 211.311 70.79 209.696 72.449C208.655 73.5168 207.402 74.0992 205.946 74.1963C204.49 74.2933 203.184 73.8786 202.036 72.9432L211.355 63.6244L210.605 62.8743C209.317 61.586 207.666 60.9153 205.637 60.8535C203.563 60.8182 201.789 61.4448 200.324 62.7508C198.701 64.2068 197.88 66.06 197.862 68.3191C197.854 70.1281 198.365 71.7077 199.389 73.0402L198.462 73.9668L193 68.5044L205.496 56L218 68.5044Z" fill="#F46A4A"/>
<defs>
<linearGradient id="paint0_linear" x1="457.494" y1="249.029" x2="404.348" y2="250.214" gradientUnits="userSpaceOnUse">
<stop stop-color="#484EC2" stop-opacity="0"/>
<stop offset="1" stop-color="#444BCC" stop-opacity="0.5"/>
</linearGradient>
</defs>
</svg>
