<svg width="188" height="24" viewBox="0 0 188 24" fill="none" xmlns="http://www.w3.org/2000/svg">
<path d="M13 16.15C12.79 16.15 12.58 16.22 12.405 16.325C11.635 16.815 8.625 17.9 4.95 17.9C3.235 17.9 2.5 16.92 2.5 14.75C2.5 13.525 2.57 12.265 2.675 11.04C3.515 10.83 5.23 10.55 7.75 10.55C8.73 10.55 9.5 10.62 10.69 10.865C10.76 10.865 10.83 10.9 10.9 10.9C11.425 10.9 11.95 10.48 11.95 9.85C11.95 8.52 9.43 8.45 8.1 8.45H7.75C5.615 8.45 3.97 8.66 2.92 8.87C3.2 6.63 3.585 4.67 3.76 3.655C5.23 3.235 7.82 2.85 13 2.85C13.56 2.85 14.05 2.36 14.05 1.8C14.05 1.24 13.56 0.75 13 0.75C6.98 0.75 4.25 1.31 2.535 1.87C2.15 2.01 1.835 2.325 1.8 2.71C1.695 3.34 0.4 9.29 0.4 14.75C0.4 17.48 1.765 20 4.95 20C8.975 20 12.265 18.985 13.595 18.075C13.91 17.865 14.05 17.55 14.05 17.2C14.05 16.605 13.525 16.15 13 16.15ZM26.9904 16.85C25.9754 16.85 24.6454 16.36 23.3504 15.1C24.6454 12.79 26.0454 11.6 26.9904 11.6C28.2854 11.6 29.4404 13 29.4404 14.75C29.4404 16.115 28.6004 16.85 26.9904 16.85ZM19.2904 23.885C19.7454 23.885 20.2004 23.535 20.3054 23.08C20.7604 21.26 21.4954 19.055 22.3704 17.06C23.8404 18.32 25.4854 18.95 26.9904 18.95C29.4404 18.95 31.5404 17.445 31.5404 14.75C31.5404 12.3 29.8954 9.5 26.9904 9.5C24.8204 9.5 23.2104 11.32 21.9504 13.35C20.2704 11.005 19.0804 9.29 18.3454 8.905C18.2054 8.835 18.0304 8.8 17.8904 8.8C17.3654 8.8 16.8404 9.22 16.8404 9.85C16.8404 10.13 16.9804 10.41 17.1904 10.62C17.4004 10.865 19.3604 13.49 20.8304 15.415C19.7104 17.76 18.8354 20.42 18.2754 22.59C18.2404 22.66 18.2404 22.765 18.2404 22.835C18.2404 23.36 18.6604 23.885 19.2904 23.885ZM44.8404 10.55C44.3154 10.55 43.8954 10.97 43.8254 11.39C43.5804 12.685 42.1104 17.9 39.2404 17.9C37.4204 17.9 36.4404 16.78 36.4404 14.75C36.4404 12.44 37.1404 11.46 37.1404 10.9C37.1404 10.375 36.7204 9.85 36.0904 9.85C35.7054 9.85 35.2854 10.06 35.1104 10.48C35.0754 10.585 34.3404 12.405 34.3404 14.75C34.3404 17.62 36.1604 20 39.2404 20C41.3054 20 42.7404 18.74 43.6854 17.34C44.1404 18.915 45.4004 20 47.2904 20C47.8504 20 48.3404 19.51 48.3404 18.95C48.3404 18.39 47.8504 17.9 47.2904 17.9C45.9954 17.9 45.5404 17.41 45.5404 15.1C45.5404 14.12 45.8904 12.72 45.8904 11.6C45.8904 11.075 45.4354 10.55 44.8404 10.55ZM64.0863 8.45C63.5263 8.45 63.0713 8.905 63.0363 9.465C62.8963 13.07 61.2163 17.2 58.4863 17.2C56.6663 17.2 55.6863 16.08 55.6863 14.05C55.6863 13.42 55.7563 12.055 56.0013 10.76C56.0013 10.69 56.0363 10.62 56.0363 10.55C56.0363 10.025 55.6163 9.5 54.9863 9.5C54.5313 9.5 54.1113 9.78 53.9713 10.235C53.0963 13.105 50.9613 17.9 47.2863 17.9C46.7263 17.9 46.2363 18.39 46.2363 18.95C46.2363 19.51 46.7263 20 47.2863 20C50.3663 20 52.5013 17.9 53.8313 15.8C54.4263 17.9 56.1063 19.3 58.4863 19.3C60.8313 19.3 62.4763 17.725 63.4913 15.905C64.0863 18.74 65.4863 20 67.5863 20C68.1463 20 68.6363 19.51 68.6363 18.95C68.6363 18.39 68.1463 17.9 67.5863 17.9C66.3263 17.9 65.4163 17.62 65.1713 12.09C65.1363 11.32 65.1363 10.445 65.1363 9.5C65.1363 9.01 64.7163 8.45 64.0863 8.45ZM79.1391 18.25C79.1391 19.545 81.4141 20 82.2891 20C84.6691 20 86.4891 18.04 86.4891 15.45C86.4891 12.58 84.7741 8.8 81.2391 8.8C78.0541 8.8 75.7791 12.09 74.2041 13.665C72.4541 15.415 69.3741 17.9 67.5891 17.9C67.0291 17.9 66.5391 18.39 66.5391 18.95C66.5391 19.51 67.0291 20 67.5891 20C70.7041 20 73.9241 16.885 75.6741 15.135C77.5991 13.21 79.5241 10.9 81.2391 10.9C82.9541 10.9 84.3891 13.07 84.3891 15.45C84.3891 17.06 83.4091 17.9 82.2891 17.9C81.7641 17.9 81.3441 17.795 80.8191 17.41C80.6441 17.27 80.3991 17.2 80.1891 17.2C79.6291 17.2 79.1391 17.655 79.1391 18.25ZM111.692 2.85C113.687 2.85 115.227 3.13 116.207 3.41C112.532 4.81 110.642 8.485 110.642 12.65C110.642 16.36 111.727 19.23 111.762 19.335C111.937 19.755 112.322 20 112.742 20C113.372 20 113.792 19.475 113.792 18.95C113.792 18.39 112.742 16.325 112.742 12.65C112.742 8.135 115.192 4.95 119.392 4.95C119.987 4.95 120.442 4.46 120.442 3.9C120.442 3.655 120.372 3.445 120.197 3.235C119.987 2.99 117.887 0.75 111.692 0.75C109.137 0.75 106.687 1.1 106.652 1.1C106.127 1.17 105.742 1.625 105.742 2.15C105.742 2.78 106.232 3.2 106.792 3.2C107.002 3.2 109.137 2.85 111.692 2.85ZM128.49 11.95C128.49 13.63 126.32 15.695 124.43 15.8C124.115 15.345 123.94 14.785 123.94 14.05C123.94 12.09 125.305 10.55 127.09 10.55C127.93 10.55 128.49 11.11 128.49 11.95ZM129.89 20C130.45 20 130.94 19.51 130.94 18.95C130.94 18.39 130.45 17.9 129.89 17.9C128.735 17.9 127.545 17.725 126.6 17.375C128.665 16.43 130.59 14.365 130.59 11.95C130.59 9.99 129.05 8.45 127.09 8.45C123.975 8.45 121.84 11.11 121.84 14.05C121.84 18.215 125.9 20 129.89 20ZM145.649 11.25C145.649 11.145 145.614 11.04 145.579 10.935C145.089 9.43 143.654 8.45 142.149 8.45C138.929 8.45 135.989 11.215 135.079 14.295C134.414 15.94 132.069 17.9 129.899 17.9C129.339 17.9 128.849 18.39 128.849 18.95C128.849 19.51 129.339 20 129.899 20C131.859 20 133.749 19.09 135.114 17.795C135.604 19.055 136.689 20 138.299 20C140.679 20 143.059 18.6 144.704 16.57C145.229 18.25 146.454 20 148.799 20C149.359 20 149.849 19.51 149.849 18.95C149.849 18.39 149.359 17.9 148.799 17.9C147.084 17.9 146.349 15.87 146.349 13.35C146.349 12.79 145.859 12.3 145.299 12.3C144.844 12.3 144.459 12.615 144.319 13.035C143.409 15.8 140.539 17.9 138.299 17.9C137.424 17.9 136.899 17.34 136.899 16.15C136.899 13.56 139.699 10.55 142.149 10.55C142.744 10.55 143.409 10.97 143.619 11.565C143.759 11.985 144.144 12.3 144.599 12.3C145.229 12.3 145.649 11.775 145.649 11.25ZM186.6 16.85C186.32 16.85 186.075 16.955 185.865 17.165C185.27 17.76 184.815 17.9 184.5 17.9C183.905 17.9 183.45 17.725 183.45 15.8C183.45 13.245 183.205 10.55 180.65 10.55C178.445 10.55 177.22 12.72 175.925 14.68C174.42 16.92 173.545 17.9 172.95 17.9C172.705 17.9 172.25 17.795 172.25 14.75C172.25 12.195 172.005 9.5 169.45 9.5C167.245 9.5 166.02 11.67 164.725 13.63C163.22 15.87 162.345 16.85 161.75 16.85C161.505 16.85 161.05 16.745 161.05 13.7C161.05 11.005 160.525 8.45 157.9 8.45C155.73 8.45 154.645 10.375 153.455 12.72C151.635 16.395 150.83 17.9 148.8 17.9C148.24 17.9 147.75 18.39 147.75 18.95C147.75 19.51 148.24 20 148.8 20C152.37 20 153.665 16.955 155.345 13.63C156.605 11.075 157.27 10.55 157.9 10.55C158.495 10.55 158.95 10.795 158.95 13.7C158.95 16.255 159.195 18.95 161.75 18.95C163.955 18.95 165.18 16.78 166.475 14.82C167.98 12.58 168.855 11.6 169.45 11.6C169.695 11.6 170.15 11.705 170.15 14.75C170.15 17.305 170.395 20 172.95 20C175.155 20 176.38 17.83 177.675 15.87C179.18 13.63 180.055 12.65 180.65 12.65C180.895 12.65 181.35 12.755 181.35 15.8C181.35 18.075 182.295 20 184.5 20C185.585 20 186.53 19.44 187.335 18.635C187.545 18.425 187.65 18.18 187.65 17.9C187.65 17.34 187.16 16.85 186.6 16.85Z" fill="#4F4F4F"/>
</svg>
